<!DOCTYPE svg PUBLIC "-//W3C//DTD SVG 1.1//EN" "http://www.w3.org/Graphics/SVG/1.1/DTD/svg11.dtd">
<!-- Uploaded to: SVG Repo, www.svgrepo.com, Transformed by: SVG Repo Mixer Tools -->
<svg fill="#3C5AA5" width="800px" height="800px" viewBox="0 0 24 24" xmlns="http://www.w3.org/2000/svg" stroke="#3C5AA5">
<g id="SVGRepo_bgCarrier" stroke-width="0"/>
<g id="SVGRepo_tracerCarrier" stroke-linecap="round" stroke-linejoin="round"/>
<g id="SVGRepo_iconCarrier">
<path d="M2.594,18.914l9,4H11.6a.974.974,0,0,0,.8,0h.008l9-4A1,1,0,0,0,22,18V6a1.04,1.04,0,0,0-.594-.914l-9-4a1,1,0,0,0-.812,0l-9,4A1.041,1.041,0,0,0,2,6V18A1,1,0,0,0,2.594,18.914ZM4,7.539l7,3.111v9.811L4,17.35ZM20,17.35l-7,3.111V10.65l7-3.111ZM12,3.094,18.538,6,12,8.906,5.462,6Z"/>
</g>
</svg>